<?xml version="1.0" encoding="utf-8"?>
<!-- Generator: Adobe Illustrator 18.0.0, SVG Export Plug-In . SVG Version: 6.00 Build 0)  -->
<!DOCTYPE svg PUBLIC "-//W3C//DTD SVG 1.1//EN" "http://www.w3.org/Graphics/SVG/1.1/DTD/svg11.dtd">
<svg version="1.1" id="Layer_1" xmlns="http://www.w3.org/2000/svg" xmlns:xlink="http://www.w3.org/1999/xlink" x="0px" y="0px"
	 viewBox="0 0 800 600" enable-background="new 0 0 800 600" xml:space="preserve">
<g>
	<g>
		<linearGradient id="SVGID_1_" gradientUnits="userSpaceOnUse" x1="367.6937" y1="440.7462" x2="432.4496" y2="73.4976">
			<stop  offset="0.2089" style="stop-color:#0E9A48"/>
			<stop  offset="1" style="stop-color:#9ACA3C"/>
		</linearGradient>
		<path fill="url(#SVGID_1_)" d="M568.1,336.3c0,9.8-7,21.9-15.5,26.8l-137.1,79.1c-8.5,4.9-22.4,4.9-30.9,0l-137.1-79.1
			c-8.5-4.9-15.5-17-15.5-26.8V178c0-9.8,7-21.9,15.5-26.8l137.1-79.1c8.5-4.9,22.4-4.9,30.9,0l137.1,79.1
			c8.5,4.9,15.5,17,15.5,26.8V336.3z"/>
	</g>
	<g>
		<path fill="#0A1928" stroke="#0A1928" stroke-width="7" stroke-miterlimit="10" d="M384.1,304.8c0,9.2,7.5,16.7,16.7,16.7
			c9.2,0,16.7-7.5,16.7-16.7c0-9.2-7.5-16.7-16.7-16.7C391.6,288.1,384.1,295.5,384.1,304.8z"/>
		<circle fill="#0A1928" stroke="#0A1928" stroke-width="7" stroke-miterlimit="10" cx="400.8" cy="260.5" r="11.1"/>
		<path fill="#0A1928" stroke="#0A1928" stroke-width="7" stroke-miterlimit="10" d="M391.2,226.5c0,5.3,4.3,9.6,9.6,9.6
			c5.3,0,9.6-4.3,9.6-9.6c0-5.3-4.3-9.6-9.6-9.6C395.5,216.9,391.2,221.2,391.2,226.5z"/>
		<path fill="#0A1928" stroke="#0A1928" stroke-width="7" stroke-miterlimit="10" d="M392.7,195.6c0,4.5,3.6,8.1,8.1,8.1
			c4.5,0,8.1-3.6,8.1-8.1c0-4.5-3.6-8.1-8.1-8.1C396.3,187.5,392.7,191.1,392.7,195.6z"/>
		<path fill="#0A1928" stroke="#0A1928" stroke-width="7" stroke-miterlimit="10" d="M394.3,166.3c0,3.6,2.9,6.5,6.5,6.5
			c3.6,0,6.5-2.9,6.5-6.5c0-3.6-2.9-6.5-6.5-6.5C397.2,159.8,394.3,162.7,394.3,166.3z"/>
		<circle fill="#0A1928" stroke="#0A1928" stroke-width="7" stroke-miterlimit="10" cx="400.8" cy="138.6" r="4.8"/>
		<circle fill="#0A1928" stroke="#0A1928" stroke-width="7" stroke-miterlimit="10" cx="400.8" cy="114" r="3.2"/>
		<circle fill="#0A1928" stroke="#0A1928" stroke-width="7" stroke-miterlimit="10" cx="400.8" cy="345" r="4.4"/>
		<circle fill="#0A1928" stroke="#0A1928" stroke-width="7" stroke-miterlimit="10" cx="400.8" cy="363.8" r="3.3"/>
		<circle fill="#0A1928" stroke="#0A1928" stroke-width="7" stroke-miterlimit="10" cx="400.8" cy="382.6" r="2.2"/>
		<circle fill="#0A1928" stroke="#0A1928" stroke-width="7" stroke-miterlimit="10" cx="464.1" cy="368.9" r="3.2"/>
		<circle fill="#0A1928" stroke="#0A1928" stroke-width="7" stroke-miterlimit="10" cx="338.9" cy="368.9" r="3.2"/>
		<circle fill="#0A1928" stroke="#0A1928" stroke-width="7" stroke-miterlimit="10" cx="435.1" cy="274.6" r="9"/>
		<circle fill="#0A1928" stroke="#0A1928" stroke-width="7" stroke-miterlimit="10" cx="458" cy="254.3" r="7.7"/>
		<circle fill="#0A1928" stroke="#0A1928" stroke-width="7" stroke-miterlimit="10" cx="479.4" cy="235.5" r="6.3"/>
		<path fill="#0A1928" stroke="#0A1928" stroke-width="7" stroke-miterlimit="10" d="M502.6,221.9c1.9-1.9,1.9-5,0-6.9
			c-1.9-1.9-5-1.9-6.9,0c-1.9,1.9-1.9,5,0,6.9C497.6,223.8,500.7,223.8,502.6,221.9z"/>
		<circle fill="#0A1928" stroke="#0A1928" stroke-width="7" stroke-miterlimit="10" cx="518.9" cy="201.2" r="3.5"/>
		<circle fill="#0A1928" stroke="#0A1928" stroke-width="7" stroke-miterlimit="10" cx="426.9" cy="335.5" r="6.3"/>
		<path fill="#0A1928" stroke="#0A1928" stroke-width="7" stroke-miterlimit="10" d="M441.6,356.1c1.9,1.9,5,1.9,6.9,0
			c1.9-1.9,1.9-5,0-6.9c-1.9-1.9-5-1.9-6.9,0C439.7,351.1,439.7,354.2,441.6,356.1z"/>
		<circle fill="#0A1928" stroke="#0A1928" stroke-width="7" stroke-miterlimit="10" cx="365.8" cy="274.7" r="9"/>
		<circle fill="#0A1928" stroke="#0A1928" stroke-width="7" stroke-miterlimit="10" cx="341.3" cy="254.4" r="7.7"/>
		<circle fill="#0A1928" stroke="#0A1928" stroke-width="7" stroke-miterlimit="10" cx="319.9" cy="235.6" r="6.3"/>
		<path fill="#0A1928" stroke="#0A1928" stroke-width="7" stroke-miterlimit="10" d="M296.7,221.9c-1.9-1.9-1.9-5,0-6.9
			c1.9-1.9,5-1.9,6.9,0c1.9,1.9,1.9,5,0,6.9C301.7,223.9,298.6,223.9,296.7,221.9z"/>
		<circle fill="#0A1928" stroke="#0A1928" stroke-width="7" stroke-miterlimit="10" cx="280.4" cy="201.3" r="3.5"/>
		<circle fill="#0A1928" stroke="#0A1928" stroke-width="7" stroke-miterlimit="10" cx="374" cy="335.6" r="6.3"/>
		<path fill="#0A1928" stroke="#0A1928" stroke-width="7" stroke-miterlimit="10" d="M359.4,356.2c-1.9,1.9-5,1.9-6.9,0
			c-1.9-1.9-1.9-5,0-6.9c1.9-1.9,5-1.9,6.9,0C361.3,351.2,361.3,354.3,359.4,356.2z"/>
		<circle fill="#0A1928" stroke="#0A1928" stroke-width="7" stroke-miterlimit="10" cx="441.5" cy="309.1" r="7.7"/>
		<circle fill="#0A1928" stroke="#0A1928" stroke-width="7" stroke-miterlimit="10" cx="469.2" cy="307.7" r="6.3"/>
		<path fill="#0A1928" stroke="#0A1928" stroke-width="7" stroke-miterlimit="10" d="M495.3,311.2c2.7,0,4.9-2.2,4.9-4.9
			c0-2.7-2.2-4.9-4.9-4.9c-2.7,0-4.9,2.2-4.9,4.9C490.4,309,492.6,311.2,495.3,311.2z"/>
		<circle fill="#0A1928" stroke="#0A1928" stroke-width="7" stroke-miterlimit="10" cx="521.4" cy="304.9" r="3.5"/>
		<circle fill="#0A1928" stroke="#0A1928" stroke-width="7" stroke-miterlimit="10" cx="359.4" cy="309.1" r="7.7"/>
		<circle fill="#0A1928" stroke="#0A1928" stroke-width="7" stroke-miterlimit="10" cx="331.7" cy="307.7" r="6.3"/>
		<path fill="#0A1928" stroke="#0A1928" stroke-width="7" stroke-miterlimit="10" d="M305.6,311.2c-2.7,0-4.9-2.2-4.9-4.9
			c0-2.7,2.2-4.9,4.9-4.9c2.7,0,4.9,2.2,4.9,4.9C310.5,309,308.3,311.2,305.6,311.2z"/>
		<circle fill="#0A1928" stroke="#0A1928" stroke-width="7" stroke-miterlimit="10" cx="279.5" cy="304.9" r="3.5"/>
	</g>
	<g>
		<defs>
			<path id="SVGID_2_" d="M568.1,335.3c0,9.8-7,21.9-15.5,26.8l-137.1,79.1c-8.5,4.9-22.4,4.9-30.9,0l-137.1-79.1
				c-8.5-4.9-15.5-17-15.5-26.8V177c0-9.8,7-21.9,15.5-26.8l137.1-79.1c8.5-4.9,22.4-4.9,30.9,0l137.1,79.1
				c8.5,4.9,15.5,17,15.5,26.8V335.3z"/>
		</defs>
		<clipPath id="SVGID_3_">
			<use xlink:href="#SVGID_2_"  overflow="visible"/>
		</clipPath>
	</g>
	<g>
		<path fill="#0A1928" d="M558.7,489.7v6.6h-0.5v-6.6h-2.1v-0.5h4.8v0.5H558.7z"/>
		<path fill="#0A1928" d="M568.2,496.3v-5.9l-2.2,4.9h-0.5l-2.2-4.9v5.9h-0.5v-7.1h0.5l2.5,5.5l2.4-5.5h0.5v7.1H568.2z"/>
	</g>
	<g>
		<path fill="#0A1928" d="M275.4,529.5c-1.8,1.7-3.6,3-5.7,4c-2,1-4.5,1.4-7.4,1.4c-2.5,0-4.7-0.4-6.8-1.3c-2.1-0.8-3.9-2-5.5-3.6
			c-1.1-1.1-2-2.3-2.6-3.5c-0.6-1.2-1.1-2.6-1.3-4.1c-0.3-1.5-0.5-3.1-0.5-4.9c0-1.8-0.1-3.8-0.1-6c0-2.2,0-4.2,0.1-6
			c0-1.8,0.2-3.4,0.5-4.9c0.3-1.5,0.7-2.8,1.3-4.1s1.5-2.4,2.6-3.5c1.6-1.6,3.5-2.8,5.5-3.6c2.1-0.8,4.3-1.3,6.8-1.3
			c2.9,0,5.4,0.5,7.4,1.4c2,1,3.9,2.3,5.7,4l-4.7,4.7c-1.2-1.2-2.4-2.1-3.7-2.8c-1.2-0.7-2.8-1-4.7-1c-1.4,0-2.7,0.2-3.9,0.7
			c-1.2,0.5-2.2,1.2-3,2c-0.6,0.6-1,1.3-1.4,2c-0.4,0.7-0.7,1.6-0.9,2.6c-0.2,1.1-0.3,2.3-0.4,3.9c-0.1,1.5-0.1,3.5-0.1,5.8
			c0,2.3,0,4.2,0.1,5.8c0.1,1.5,0.2,2.8,0.4,3.9c0.2,1.1,0.5,1.9,0.9,2.6c0.4,0.7,0.8,1.4,1.4,2c0.8,0.9,1.8,1.5,3,2
			s2.5,0.7,3.9,0.7c1.9,0,3.5-0.3,4.7-1c1.2-0.7,2.4-1.6,3.7-2.8L275.4,529.5z"/>
		<path fill="#0A1928" d="M302.1,534.6v-3c-1.2,1.2-2.5,2.1-3.8,2.6c-1.3,0.5-3,0.8-5.1,0.8c-2.1,0-3.9-0.2-5.3-0.7
			c-1.4-0.5-2.6-1.2-3.7-2.2c-1.8-1.8-2.6-4.1-2.6-7c0-2.7,1-5,2.9-6.8c1.9-1.8,4.8-2.6,8.7-2.6h8.8v-2.3c0-2.1-0.6-3.6-1.7-4.6
			c-1.1-1-3-1.5-5.6-1.5c-1.8,0-3.3,0.2-4.3,0.7c-1.1,0.5-2,1.3-3,2.4l-4.4-4.1c1.6-1.8,3.3-3,5.1-3.7c1.8-0.7,4.1-1,6.9-1
			c9.2,0,13.8,3.7,13.8,11.2v21.8H302.1z M302,520.1h-7.8c-2,0-3.5,0.4-4.5,1.2c-1,0.8-1.5,2-1.5,3.5c0,1.5,0.5,2.6,1.5,3.4
			c1,0.8,2.5,1.2,4.6,1.2c1.3,0,2.4-0.1,3.4-0.3c1-0.2,2-0.7,2.8-1.6c1-0.9,1.4-2.6,1.4-4.8V520.1z"/>
		<path fill="#0A1928" d="M339.4,534.6v-19.9c0-2.5-0.6-4.4-1.9-5.5c-1.3-1.2-2.9-1.7-4.8-1.7c-0.9,0-1.8,0.1-2.7,0.4
			c-0.9,0.3-1.6,0.7-2.2,1.3c-0.6,0.6-1.1,1.4-1.5,2.3c-0.4,0.9-0.6,2-0.6,3.2v19.9H319v-32.6h6.6v3.3c1.1-1.2,2.5-2.2,4-2.8
			c1.6-0.6,3.2-0.9,4.8-0.9c1.7,0,3.3,0.3,4.6,0.8s2.6,1.2,3.6,2.2c1.3,1.2,2.1,2.6,2.6,4.2c0.5,1.5,0.7,3.2,0.7,5.1v20.8H339.4z"/>
		<path fill="#0A1928" d="M376.7,534.6v-19.9c0-2.5-0.6-4.4-1.9-5.5c-1.3-1.2-2.9-1.7-4.8-1.7c-0.9,0-1.8,0.1-2.7,0.4
			c-0.9,0.3-1.6,0.7-2.2,1.3c-0.6,0.6-1.1,1.4-1.5,2.3c-0.4,0.9-0.6,2-0.6,3.2v19.9h-6.7v-32.6h6.6v3.3c1.1-1.2,2.5-2.2,4-2.8
			c1.6-0.6,3.2-0.9,4.8-0.9c1.7,0,3.3,0.3,4.6,0.8s2.6,1.2,3.6,2.2c1.3,1.2,2.1,2.6,2.6,4.2c0.5,1.5,0.7,3.2,0.7,5.1v20.8H376.7z"/>
		<path fill="#0A1928" d="M411.8,534.6v-3c-1.2,1.2-2.5,2.1-3.8,2.6c-1.3,0.5-3,0.8-5.1,0.8c-2.1,0-3.9-0.2-5.3-0.7
			c-1.4-0.5-2.6-1.2-3.7-2.2c-1.8-1.8-2.6-4.1-2.6-7c0-2.7,1-5,2.9-6.8c1.9-1.8,4.8-2.6,8.7-2.6h8.8v-2.3c0-2.1-0.6-3.6-1.7-4.6
			c-1.1-1-3-1.5-5.6-1.5c-1.8,0-3.3,0.2-4.3,0.7c-1.1,0.5-2,1.3-3,2.4l-4.4-4.1c1.6-1.8,3.3-3,5.1-3.7c1.8-0.7,4.1-1,6.9-1
			c9.2,0,13.8,3.7,13.8,11.2v21.8H411.8z M411.6,520.1h-7.8c-2,0-3.5,0.4-4.5,1.2c-1,0.8-1.5,2-1.5,3.5c0,1.5,0.5,2.6,1.5,3.4
			c1,0.8,2.5,1.2,4.6,1.2c1.3,0,2.4-0.1,3.4-0.3c1-0.2,2-0.7,2.8-1.6c1-0.9,1.4-2.6,1.4-4.8V520.1z"/>
		<path fill="#0A1928" d="M462.7,511.3c0,1.7,0,3.4,0,5.1c0,1.7-0.2,3.4-0.4,5c-0.3,1.7-0.7,3.2-1.4,4.7c-0.7,1.5-1.6,2.9-2.9,4.1
			c-1.5,1.5-3.3,2.5-5.3,3.2c-2.1,0.7-4.3,1.1-6.8,1.1h-16.5v-45.8h16.5c2.5,0,4.7,0.4,6.8,1.1c2.1,0.7,3.8,1.8,5.3,3.2
			c1.3,1.2,2.2,2.6,2.9,4c0.7,1.4,1.1,2.9,1.4,4.5c0.3,1.6,0.4,3.2,0.4,4.8C462.7,508,462.7,509.7,462.7,511.3z M455.6,511.3
			c0-3.2-0.1-5.8-0.3-8c-0.2-2.2-0.9-3.9-2.2-5.2c-1.9-2.1-4.6-3.1-8-3.1h-8.6v33.3h8.6c3.4,0,6-1,8-3.1c1.2-1.3,2-3.2,2.2-5.6
			C455.5,517.3,455.6,514.5,455.6,511.3z"/>
		<path fill="#0A1928" d="M490.4,534.6v-3c-1.2,1.2-2.5,2.1-3.8,2.6c-1.3,0.5-3,0.8-5.1,0.8c-2.1,0-3.9-0.2-5.3-0.7
			c-1.4-0.5-2.6-1.2-3.7-2.2c-1.8-1.8-2.6-4.1-2.6-7c0-2.7,1-5,2.9-6.8c1.9-1.8,4.8-2.6,8.7-2.6h8.8v-2.3c0-2.1-0.6-3.6-1.7-4.6
			c-1.1-1-3-1.5-5.6-1.5c-1.8,0-3.3,0.2-4.3,0.7c-1.1,0.5-2,1.3-3,2.4l-4.4-4.1c1.6-1.8,3.3-3,5.1-3.7c1.8-0.7,4.1-1,6.9-1
			c9.2,0,13.8,3.7,13.8,11.2v21.8H490.4z M490.3,520.1h-7.8c-2,0-3.5,0.4-4.5,1.2c-1,0.8-1.5,2-1.5,3.5c0,1.5,0.5,2.6,1.5,3.4
			c1,0.8,2.5,1.2,4.6,1.2c1.3,0,2.4-0.1,3.4-0.3c1-0.2,2-0.7,2.8-1.6c1-0.9,1.4-2.6,1.4-4.8V520.1z"/>
		<path fill="#0A1928" d="M517.3,534.6c-1.6,0-2.9-0.3-4.1-0.8s-2.1-1.2-2.8-2c-0.7-0.8-1.3-1.8-1.7-2.9c-0.4-1.1-0.6-2.2-0.6-3.4
			v-18h-3.8v-5h3.8v-9.9h6.7v9.9h6.4v5h-6.4v17.6c0,1.2,0.3,2.1,0.9,2.8c0.6,0.7,1.5,1,2.8,1h2.8v5.6H517.3z"/>
		<path fill="#0A1928" d="M547.5,534.6v-3c-1.2,1.2-2.5,2.1-3.8,2.6c-1.3,0.5-3,0.8-5.1,0.8c-2.1,0-3.9-0.2-5.3-0.7
			c-1.4-0.5-2.6-1.2-3.7-2.2c-1.8-1.8-2.6-4.1-2.6-7c0-2.7,1-5,2.9-6.8c1.9-1.8,4.8-2.6,8.7-2.6h8.8v-2.3c0-2.1-0.6-3.6-1.7-4.6
			c-1.1-1-3-1.5-5.6-1.5c-1.8,0-3.3,0.2-4.3,0.7c-1.1,0.5-2,1.3-3,2.4l-4.4-4.1c1.6-1.8,3.3-3,5.1-3.7c1.8-0.7,4.1-1,6.9-1
			c9.2,0,13.8,3.7,13.8,11.2v21.8H547.5z M547.4,520.1h-7.8c-2,0-3.5,0.4-4.5,1.2c-1,0.8-1.5,2-1.5,3.5c0,1.5,0.5,2.6,1.5,3.4
			c1,0.8,2.5,1.2,4.6,1.2c1.3,0,2.4-0.1,3.4-0.3c1-0.2,2-0.7,2.8-1.6c1-0.9,1.4-2.6,1.4-4.8V520.1z"/>
	</g>
</g>
</svg>
